# xmcd CD database file
#
# Track frame offsets:
#	150
#	22265
#	49177
#	80928
#	100472
#
# Disc length: 1939 seconds
#
# Revision: 1
# Processed by: cddbd v1.5.2PL0 Copyright (c) Steve Scherf et al.
# Submitted via: CDex 1.51
#
DISCID=44079105
DTITLE=The Temperance Movement - The Temperance Movement - CD Bonus
DYEAR=2013
DGENRE=Blues Rock
TTITLE0=Ain't No Telling (Live From Glasgow)
TTITLE1=Take It Back (Live From Glasgow) 
TTITLE2=Only Friend (Live From Lincoln)
TTITLE3=Midnight Black (Live From London)
TTITLE4=Lovers And Fighters (Live From Portsmouth)
EXTD=YEAR: 2013
EXTT0=
EXTT1=
EXTT2=
EXTT3=
EXTT4=
PLAYORDER=
